<mxfile host="app.diagrams.net" modified="2023-07-18T18:15:16.958Z" agent="Mozilla/5.0 (Windows NT 10.0; Win64; x64) AppleWebKit/537.36 (KHTML, like Gecko) Chrome/112.0.0.0 YaBrowser/23.5.4.674 Yowser/2.5 Safari/537.36" etag="usQqXjs1YO4ZHWxXG03V" version="21.6.2" type="github">
  <diagram id="C5RBs43oDa-KdzZeNtuy" name="Page-1">
    <mxGraphModel dx="2485" dy="2185" grid="1" gridSize="10" guides="1" tooltips="1" connect="1" arrows="1" fold="1" page="1" pageScale="1" pageWidth="827" pageHeight="1169" math="0" shadow="0">
      <root>
        <mxCell id="WIyWlLk6GJQsqaUBKTNV-0" />
        <mxCell id="WIyWlLk6GJQsqaUBKTNV-1" parent="WIyWlLk6GJQsqaUBKTNV-0" />
        <mxCell id="pHiq1aRlmZDNOrV165wX-13" value="" style="edgeStyle=orthogonalEdgeStyle;rounded=0;orthogonalLoop=1;jettySize=auto;html=1;" edge="1" parent="WIyWlLk6GJQsqaUBKTNV-1" source="WIyWlLk6GJQsqaUBKTNV-3" target="pHiq1aRlmZDNOrV165wX-4">
          <mxGeometry relative="1" as="geometry" />
        </mxCell>
        <mxCell id="WIyWlLk6GJQsqaUBKTNV-3" value="/start" style="rounded=1;whiteSpace=wrap;html=1;fontSize=12;glass=0;strokeWidth=1;shadow=0;" parent="WIyWlLk6GJQsqaUBKTNV-1" vertex="1">
          <mxGeometry x="-760" y="320" width="120" height="40" as="geometry" />
        </mxCell>
        <mxCell id="pHiq1aRlmZDNOrV165wX-55" value="" style="edgeStyle=orthogonalEdgeStyle;rounded=0;orthogonalLoop=1;jettySize=auto;html=1;" edge="1" parent="WIyWlLk6GJQsqaUBKTNV-1" source="WIyWlLk6GJQsqaUBKTNV-7" target="pHiq1aRlmZDNOrV165wX-47">
          <mxGeometry relative="1" as="geometry" />
        </mxCell>
        <mxCell id="pHiq1aRlmZDNOrV165wX-56" style="edgeStyle=orthogonalEdgeStyle;rounded=0;orthogonalLoop=1;jettySize=auto;html=1;exitX=1;exitY=0.75;exitDx=0;exitDy=0;entryX=0;entryY=0.5;entryDx=0;entryDy=0;" edge="1" parent="WIyWlLk6GJQsqaUBKTNV-1" source="WIyWlLk6GJQsqaUBKTNV-7" target="pHiq1aRlmZDNOrV165wX-21">
          <mxGeometry relative="1" as="geometry">
            <Array as="points">
              <mxPoint x="-80" y="155" />
              <mxPoint x="-40" y="155" />
              <mxPoint x="-40" y="90" />
            </Array>
          </mxGeometry>
        </mxCell>
        <mxCell id="pHiq1aRlmZDNOrV165wX-57" style="edgeStyle=orthogonalEdgeStyle;rounded=0;orthogonalLoop=1;jettySize=auto;html=1;exitX=1;exitY=0.5;exitDx=0;exitDy=0;entryX=0;entryY=0.5;entryDx=0;entryDy=0;" edge="1" parent="WIyWlLk6GJQsqaUBKTNV-1" source="WIyWlLk6GJQsqaUBKTNV-7" target="pHiq1aRlmZDNOrV165wX-50">
          <mxGeometry relative="1" as="geometry" />
        </mxCell>
        <mxCell id="WIyWlLk6GJQsqaUBKTNV-7" value="Чем я могу Вам помочь?" style="rounded=1;whiteSpace=wrap;html=1;fontSize=12;glass=0;strokeWidth=1;shadow=0;" parent="WIyWlLk6GJQsqaUBKTNV-1" vertex="1">
          <mxGeometry x="-200" y="135" width="120" height="40" as="geometry" />
        </mxCell>
        <mxCell id="pHiq1aRlmZDNOrV165wX-16" value="" style="edgeStyle=orthogonalEdgeStyle;rounded=0;orthogonalLoop=1;jettySize=auto;html=1;" edge="1" parent="WIyWlLk6GJQsqaUBKTNV-1" source="pHiq1aRlmZDNOrV165wX-3" target="pHiq1aRlmZDNOrV165wX-15">
          <mxGeometry relative="1" as="geometry" />
        </mxCell>
        <mxCell id="pHiq1aRlmZDNOrV165wX-3" value="Регистрация пользователя" style="rounded=1;whiteSpace=wrap;html=1;" vertex="1" parent="WIyWlLk6GJQsqaUBKTNV-1">
          <mxGeometry x="-400" y="320" width="120" height="40" as="geometry" />
        </mxCell>
        <mxCell id="pHiq1aRlmZDNOrV165wX-12" value="" style="edgeStyle=orthogonalEdgeStyle;rounded=0;orthogonalLoop=1;jettySize=auto;html=1;" edge="1" parent="WIyWlLk6GJQsqaUBKTNV-1" source="pHiq1aRlmZDNOrV165wX-4" target="pHiq1aRlmZDNOrV165wX-3">
          <mxGeometry relative="1" as="geometry" />
        </mxCell>
        <mxCell id="pHiq1aRlmZDNOrV165wX-4" value="Приветственное сообщение" style="rounded=1;whiteSpace=wrap;html=1;" vertex="1" parent="WIyWlLk6GJQsqaUBKTNV-1">
          <mxGeometry x="-580" y="320" width="120" height="40" as="geometry" />
        </mxCell>
        <mxCell id="pHiq1aRlmZDNOrV165wX-61" style="edgeStyle=orthogonalEdgeStyle;rounded=0;orthogonalLoop=1;jettySize=auto;html=1;exitX=1;exitY=0.5;exitDx=0;exitDy=0;entryX=0;entryY=0.5;entryDx=0;entryDy=0;" edge="1" parent="WIyWlLk6GJQsqaUBKTNV-1" source="pHiq1aRlmZDNOrV165wX-6" target="pHiq1aRlmZDNOrV165wX-46">
          <mxGeometry relative="1" as="geometry" />
        </mxCell>
        <mxCell id="pHiq1aRlmZDNOrV165wX-62" style="edgeStyle=orthogonalEdgeStyle;rounded=0;orthogonalLoop=1;jettySize=auto;html=1;exitX=1;exitY=0.5;exitDx=0;exitDy=0;entryX=0;entryY=0.5;entryDx=0;entryDy=0;" edge="1" parent="WIyWlLk6GJQsqaUBKTNV-1" source="pHiq1aRlmZDNOrV165wX-6" target="pHiq1aRlmZDNOrV165wX-51">
          <mxGeometry relative="1" as="geometry" />
        </mxCell>
        <mxCell id="pHiq1aRlmZDNOrV165wX-64" style="edgeStyle=orthogonalEdgeStyle;rounded=0;orthogonalLoop=1;jettySize=auto;html=1;exitX=1;exitY=0.5;exitDx=0;exitDy=0;entryX=0;entryY=0.5;entryDx=0;entryDy=0;" edge="1" parent="WIyWlLk6GJQsqaUBKTNV-1" source="pHiq1aRlmZDNOrV165wX-6" target="pHiq1aRlmZDNOrV165wX-63">
          <mxGeometry relative="1" as="geometry" />
        </mxCell>
        <mxCell id="pHiq1aRlmZDNOrV165wX-6" value="Чем я могу Вам помочь?" style="rounded=1;whiteSpace=wrap;html=1;shadow=0;strokeWidth=1;spacing=6;spacingTop=-4;" vertex="1" parent="WIyWlLk6GJQsqaUBKTNV-1">
          <mxGeometry x="-200" y="505" width="120" height="40" as="geometry" />
        </mxCell>
        <mxCell id="pHiq1aRlmZDNOrV165wX-8" value="&lt;span style=&quot;color: rgb(0, 0, 0); font-family: Helvetica; font-size: 12px; font-style: normal; font-variant-ligatures: normal; font-variant-caps: normal; font-weight: 400; letter-spacing: normal; orphans: 2; text-align: center; text-indent: 0px; text-transform: none; widows: 2; word-spacing: 0px; -webkit-text-stroke-width: 0px; background-color: rgb(251, 251, 251); text-decoration-thickness: initial; text-decoration-style: initial; text-decoration-color: initial; float: none; display: inline !important;&quot;&gt;Практикант&lt;/span&gt;" style="text;whiteSpace=wrap;html=1;" vertex="1" parent="WIyWlLk6GJQsqaUBKTNV-1">
          <mxGeometry x="-120" y="260" width="190" height="40" as="geometry" />
        </mxCell>
        <mxCell id="pHiq1aRlmZDNOrV165wX-10" value="&lt;span style=&quot;color: rgb(0, 0, 0); font-family: Helvetica; font-size: 12px; font-style: normal; font-variant-ligatures: normal; font-variant-caps: normal; font-weight: 400; letter-spacing: normal; orphans: 2; text-align: center; text-indent: 0px; text-transform: none; widows: 2; word-spacing: 0px; -webkit-text-stroke-width: 0px; background-color: rgb(251, 251, 251); text-decoration-thickness: initial; text-decoration-style: initial; text-decoration-color: initial; float: none; display: inline !important;&quot;&gt;Стажёр&lt;/span&gt;" style="text;whiteSpace=wrap;html=1;" vertex="1" parent="WIyWlLk6GJQsqaUBKTNV-1">
          <mxGeometry x="-120" y="380" width="190" height="40" as="geometry" />
        </mxCell>
        <mxCell id="pHiq1aRlmZDNOrV165wX-19" value="" style="edgeStyle=orthogonalEdgeStyle;rounded=0;orthogonalLoop=1;jettySize=auto;html=1;" edge="1" parent="WIyWlLk6GJQsqaUBKTNV-1" source="pHiq1aRlmZDNOrV165wX-15" target="WIyWlLk6GJQsqaUBKTNV-7">
          <mxGeometry relative="1" as="geometry" />
        </mxCell>
        <mxCell id="pHiq1aRlmZDNOrV165wX-20" value="" style="edgeStyle=orthogonalEdgeStyle;rounded=0;orthogonalLoop=1;jettySize=auto;html=1;" edge="1" parent="WIyWlLk6GJQsqaUBKTNV-1" source="pHiq1aRlmZDNOrV165wX-15" target="pHiq1aRlmZDNOrV165wX-6">
          <mxGeometry relative="1" as="geometry" />
        </mxCell>
        <mxCell id="pHiq1aRlmZDNOrV165wX-15" value="Вы являетесь практикантом или стажером?" style="rounded=1;whiteSpace=wrap;html=1;" vertex="1" parent="WIyWlLk6GJQsqaUBKTNV-1">
          <mxGeometry x="-200" y="315" width="120" height="50" as="geometry" />
        </mxCell>
        <mxCell id="pHiq1aRlmZDNOrV165wX-58" style="edgeStyle=orthogonalEdgeStyle;rounded=0;orthogonalLoop=1;jettySize=auto;html=1;exitX=1;exitY=0.5;exitDx=0;exitDy=0;" edge="1" parent="WIyWlLk6GJQsqaUBKTNV-1" source="pHiq1aRlmZDNOrV165wX-21">
          <mxGeometry relative="1" as="geometry">
            <mxPoint x="260" y="40" as="targetPoint" />
          </mxGeometry>
        </mxCell>
        <mxCell id="pHiq1aRlmZDNOrV165wX-21" value="FAQ" style="rounded=1;whiteSpace=wrap;html=1;" vertex="1" parent="WIyWlLk6GJQsqaUBKTNV-1">
          <mxGeometry y="70" width="120" height="40" as="geometry" />
        </mxCell>
        <mxCell id="pHiq1aRlmZDNOrV165wX-22" value="Будет ли оплачиваться практика?" style="rounded=1;whiteSpace=wrap;html=1;" vertex="1" parent="WIyWlLk6GJQsqaUBKTNV-1">
          <mxGeometry x="360" y="-235" width="200" height="30" as="geometry" />
        </mxCell>
        <mxCell id="pHiq1aRlmZDNOrV165wX-23" value="Что меня ждёт после окончания практики?" style="rounded=1;whiteSpace=wrap;html=1;" vertex="1" parent="WIyWlLk6GJQsqaUBKTNV-1">
          <mxGeometry x="360" y="-180" width="200" height="40" as="geometry" />
        </mxCell>
        <mxCell id="pHiq1aRlmZDNOrV165wX-24" value="Сколько часов в неделю нужно уделять практике?" style="rounded=1;whiteSpace=wrap;html=1;" vertex="1" parent="WIyWlLk6GJQsqaUBKTNV-1">
          <mxGeometry x="150" y="-180" width="190" height="40" as="geometry" />
        </mxCell>
        <mxCell id="pHiq1aRlmZDNOrV165wX-25" value="Сколько длится стажировка?" style="rounded=1;whiteSpace=wrap;html=1;" vertex="1" parent="WIyWlLk6GJQsqaUBKTNV-1">
          <mxGeometry x="180" y="575" width="178.5" height="30" as="geometry" />
        </mxCell>
        <mxCell id="pHiq1aRlmZDNOrV165wX-26" value="Как будет оцениваться моя практика?" style="rounded=1;whiteSpace=wrap;html=1;" vertex="1" parent="WIyWlLk6GJQsqaUBKTNV-1">
          <mxGeometry x="150" y="-235" width="190" height="40" as="geometry" />
        </mxCell>
        <mxCell id="pHiq1aRlmZDNOrV165wX-27" value="К кому обращаться за моей характеристикой?" style="rounded=1;whiteSpace=wrap;html=1;" vertex="1" parent="WIyWlLk6GJQsqaUBKTNV-1">
          <mxGeometry x="360" y="-10" width="200" height="30" as="geometry" />
        </mxCell>
        <mxCell id="pHiq1aRlmZDNOrV165wX-28" value="Смогу ли я совмещать стажировку с основной учебой?" style="rounded=1;whiteSpace=wrap;html=1;" vertex="1" parent="WIyWlLk6GJQsqaUBKTNV-1">
          <mxGeometry x="400" y="680" width="200" height="40" as="geometry" />
        </mxCell>
        <mxCell id="pHiq1aRlmZDNOrV165wX-29" value="Что меня ждёт после окончания стажировки?" style="rounded=1;whiteSpace=wrap;html=1;" vertex="1" parent="WIyWlLk6GJQsqaUBKTNV-1">
          <mxGeometry x="400" y="620" width="200" height="40" as="geometry" />
        </mxCell>
        <mxCell id="pHiq1aRlmZDNOrV165wX-30" value="Сколько длится практика?" style="rounded=1;whiteSpace=wrap;html=1;" vertex="1" parent="WIyWlLk6GJQsqaUBKTNV-1">
          <mxGeometry x="150" y="-10" width="190" height="30" as="geometry" />
        </mxCell>
        <mxCell id="pHiq1aRlmZDNOrV165wX-31" value="Оформляется ли трудовой договор во время стажировки?" style="rounded=1;whiteSpace=wrap;html=1;" vertex="1" parent="WIyWlLk6GJQsqaUBKTNV-1">
          <mxGeometry x="178.5" y="680" width="180" height="40" as="geometry" />
        </mxCell>
        <mxCell id="pHiq1aRlmZDNOrV165wX-32" value="Будет ли у меня наставник?" style="rounded=1;whiteSpace=wrap;html=1;" vertex="1" parent="WIyWlLk6GJQsqaUBKTNV-1">
          <mxGeometry x="178.5" y="740" width="180" height="30" as="geometry" />
        </mxCell>
        <mxCell id="pHiq1aRlmZDNOrV165wX-33" value="Могу ли я пройти практику дистанционно?" style="rounded=1;whiteSpace=wrap;html=1;" vertex="1" parent="WIyWlLk6GJQsqaUBKTNV-1">
          <mxGeometry x="360" y="40" width="200" height="30" as="geometry" />
        </mxCell>
        <mxCell id="pHiq1aRlmZDNOrV165wX-34" value="Оформляется ли трудовой договор во время практики?" style="rounded=1;whiteSpace=wrap;html=1;" vertex="1" parent="WIyWlLk6GJQsqaUBKTNV-1">
          <mxGeometry x="150" y="-120" width="190" height="40" as="geometry" />
        </mxCell>
        <mxCell id="pHiq1aRlmZDNOrV165wX-35" value="Есть ли дресс-код в компании?" style="rounded=1;whiteSpace=wrap;html=1;" vertex="1" parent="WIyWlLk6GJQsqaUBKTNV-1">
          <mxGeometry x="400" y="575" width="200" height="30" as="geometry" />
        </mxCell>
        <mxCell id="pHiq1aRlmZDNOrV165wX-38" value="Есть ли дресс-код в компании?" style="rounded=1;whiteSpace=wrap;html=1;" vertex="1" parent="WIyWlLk6GJQsqaUBKTNV-1">
          <mxGeometry x="360" y="-60" width="200" height="30" as="geometry" />
        </mxCell>
        <mxCell id="pHiq1aRlmZDNOrV165wX-39" value="Будет ли у меня наставник?" style="rounded=1;whiteSpace=wrap;html=1;" vertex="1" parent="WIyWlLk6GJQsqaUBKTNV-1">
          <mxGeometry x="150" y="-60" width="190" height="30" as="geometry" />
        </mxCell>
        <mxCell id="pHiq1aRlmZDNOrV165wX-40" value="Какие нужны документы для прохождения практики?" style="rounded=1;whiteSpace=wrap;html=1;" vertex="1" parent="WIyWlLk6GJQsqaUBKTNV-1">
          <mxGeometry x="360" y="-120" width="200" height="40" as="geometry" />
        </mxCell>
        <mxCell id="pHiq1aRlmZDNOrV165wX-43" value="Какие нужны документы для прохождения стажировки?" style="rounded=1;whiteSpace=wrap;html=1;" vertex="1" parent="WIyWlLk6GJQsqaUBKTNV-1">
          <mxGeometry x="183" y="620" width="177" height="40" as="geometry" />
        </mxCell>
        <mxCell id="pHiq1aRlmZDNOrV165wX-66" value="" style="edgeStyle=orthogonalEdgeStyle;rounded=0;orthogonalLoop=1;jettySize=auto;html=1;" edge="1" parent="WIyWlLk6GJQsqaUBKTNV-1" source="pHiq1aRlmZDNOrV165wX-46" target="pHiq1aRlmZDNOrV165wX-25">
          <mxGeometry relative="1" as="geometry" />
        </mxCell>
        <mxCell id="pHiq1aRlmZDNOrV165wX-46" value="FAQ" style="rounded=1;whiteSpace=wrap;html=1;" vertex="1" parent="WIyWlLk6GJQsqaUBKTNV-1">
          <mxGeometry y="570" width="120" height="40" as="geometry" />
        </mxCell>
        <mxCell id="pHiq1aRlmZDNOrV165wX-47" value="Основная информация о компании" style="rounded=1;whiteSpace=wrap;html=1;" vertex="1" parent="WIyWlLk6GJQsqaUBKTNV-1">
          <mxGeometry y="130" width="120" height="50" as="geometry" />
        </mxCell>
        <mxCell id="pHiq1aRlmZDNOrV165wX-50" value="Обратная связь о практике" style="rounded=1;whiteSpace=wrap;html=1;" vertex="1" parent="WIyWlLk6GJQsqaUBKTNV-1">
          <mxGeometry y="200" width="120" height="40" as="geometry" />
        </mxCell>
        <mxCell id="pHiq1aRlmZDNOrV165wX-51" value="Обратная связь о стажировке" style="rounded=1;whiteSpace=wrap;html=1;" vertex="1" parent="WIyWlLk6GJQsqaUBKTNV-1">
          <mxGeometry y="440" width="120" height="40" as="geometry" />
        </mxCell>
        <mxCell id="pHiq1aRlmZDNOrV165wX-63" value="Основная информация о компании" style="rounded=1;whiteSpace=wrap;html=1;" vertex="1" parent="WIyWlLk6GJQsqaUBKTNV-1">
          <mxGeometry y="500" width="120" height="50" as="geometry" />
        </mxCell>
        <mxCell id="pHiq1aRlmZDNOrV165wX-67" style="edgeStyle=orthogonalEdgeStyle;rounded=0;orthogonalLoop=1;jettySize=auto;html=1;exitX=0.5;exitY=1;exitDx=0;exitDy=0;" edge="1" parent="WIyWlLk6GJQsqaUBKTNV-1" source="pHiq1aRlmZDNOrV165wX-43" target="pHiq1aRlmZDNOrV165wX-43">
          <mxGeometry relative="1" as="geometry" />
        </mxCell>
      </root>
    </mxGraphModel>
  </diagram>
</mxfile>
